<svg version="1.1" viewBox="0.0 0.0 960.0 720.0" fill="none" stroke="none" stroke-linecap="square" stroke-miterlimit="10" xmlns:xlink="http://www.w3.org/1999/xlink" xmlns="http://www.w3.org/2000/svg"><clipPath id="p.0"><path d="m0 0l960.0 0l0 720.0l-960.0 0l0 -720.0z" clip-rule="nonzero"/></clipPath><g clip-path="url(#p.0)"><path fill="#000000" fill-opacity="0.0" d="m0 0l960.0 0l0 720.0l-960.0 0z" fill-rule="evenodd"/><path fill="#000000" fill-opacity="0.0" d="m285.4042 344.71127l533.7323 0l0 62.26773l-533.7323 0z" fill-rule="evenodd"/><defs><linearGradient id="p.1" gradientUnits="userSpaceOnUse" gradientTransform="matrix(12.514022646467076 0.0 0.0 12.514022646467076 0.0 0.0)" spreadMethod="pad" x1="12.069819515093966" y1="11.304926268964051" x2="12.069774454095366" y2="23.81894891535"><stop offset="0.0" stop-color="#ff00ff"/><stop offset="1.4E-45" stop-color="#ff00ff"/><stop offset="0.99999994" stop-color="#cc0000"/><stop offset="1.0" stop-color="#1e123d"/></linearGradient></defs><path fill="url(#p.1)" d="m151.04199 167.5727l0 0c0 -14.414764 11.685486 -26.10025 26.100266 -26.10025l592.7443 0c6.922241 0 13.560913 2.7498322 18.455688 7.6445923c4.8947754 4.894745 7.6445923 11.533447 7.6445923 18.455658l0 104.39792c0 14.414764 -11.685486 26.10025 -26.10028 26.10025l-592.7443 0c-14.41478 0 -26.100266 -11.685486 -26.100266 -26.10025z" fill-rule="evenodd"/><path stroke="#000000" stroke-width="1.0" stroke-linejoin="round" stroke-linecap="butt" d="m151.04199 167.5727l0 0c0 -14.414764 11.685486 -26.10025 26.100266 -26.10025l592.7443 0c6.922241 0 13.560913 2.7498322 18.455688 7.6445923c4.8947754 4.894745 7.6445923 11.533447 7.6445923 18.455658l0 104.39792c0 14.414764 -11.685486 26.10025 -26.10028 26.10025l-592.7443 0c-14.41478 0 -26.100266 -11.685486 -26.100266 -26.10025z" fill-rule="evenodd"/><path fill="#000000" fill-opacity="0.0" d="m160.54068 123.55118l669.95276 0l0 174.51968l-669.95276 0z" fill-rule="evenodd"/><path fill="#000000" d="m184.79068 194.05618q0 -3.25 0.96875 -6.09375q0.96875 -2.84375 2.625 -5.0q1.65625 -2.15625 3.84375 -3.40625q2.1875 -1.25 4.6875 -1.25l2.8125 0l0 66.4375l28.9375 0l0 -73.5l-56.0 0q0.1875 -2.1875 1.15625 -4.125q0.96875 -1.9375 2.4375 -3.375q1.46875 -1.4375 3.34375 -2.25q1.875 -0.8125 4.0 -0.8125l48.0 0q2.4375 0 4.625 1.21875q2.1875 1.21875 3.78125 3.375q1.59375 2.15625 2.53125 5.0625q0.9375 2.90625 0.9375 6.21875l0 63.125q0 3.25 -0.9375 6.125q-0.9375 2.875 -2.53125 5.0q-1.59375 2.125 -3.75 3.375q-2.15625 1.25 -4.59375 1.25l-46.8125 0l-0.0625 -61.375zm83.4375 -4.0625l14.9375 0l0 54.75l25.75 0l0 -54.75l14.9375 0l0 54.75l12.625 0q-0.25 2.1875 -1.21875 4.15625q-0.96875 1.96875 -2.4375 3.40625q-1.46875 1.4375 -3.34375 2.28125q-1.875 0.84375 -3.9375 0.84375l-1.6875 0l0 17.8125q0 3.3125 -0.9375 6.21875q-0.9375 2.90625 -2.5625 5.0625q-1.625 2.15625 -3.78125 3.4375q-2.15625 1.28125 -4.59375 1.28125l-30.25 0l0 -10.8125l27.1875 0l0 -29.6875q-1.6875 3.125 -4.34375 4.90625q-2.65625 1.78125 -5.65625 1.78125l-18.8125 0q-2.4375 0 -4.625 -1.25q-2.1875 -1.25 -3.78125 -3.40625q-1.59375 -2.15625 -2.53125 -5.03125q-0.9375 -2.875 -0.9375 -6.1875l0 -49.5625zm81.4375 0l14.9375 0l0 24.75l19.3125 -20.0q2.0 -2.3125 4.15625 -3.5625q2.15625 -1.25 5.15625 -1.25q2.5 0 4.8125 1.25q2.3125 1.25 4.0625 3.40625q1.75 2.15625 2.78125 5.03125q1.03125 2.875 1.03125 6.1875l0 38.875l12.625 0q-0.25 2.25 -1.21875 4.1875q-0.96875 1.9375 -2.4375 3.40625q-1.46875 1.46875 -3.34375 2.3125q-1.875 0.84375 -3.9375 0.84375l-4.875 0q-2.5 0 -4.65625 -1.25q-2.15625 -1.25 -3.75 -3.40625q-1.59375 -2.15625 -2.53125 -5.03125q-0.9375 -2.875 -0.9375 -6.1875l0 -38.0l-26.25 27.0l0 26.875l-14.9375 0l0 -65.4375zm80.1875 17.625q0 -3.75 1.03125 -7.0q1.03125 -3.25 2.84375 -5.625q1.8125 -2.375 4.28125 -3.71875q2.46875 -1.34375 5.34375 -1.34375l42.125 0l0 54.8125l13.5625 0q-0.25 2.1875 -1.21875 4.15625q-0.96875 1.96875 -2.4375 3.40625q-1.46875 1.4375 -3.34375 2.28125q-1.875 0.84375 -3.9375 0.84375l-6.6875 0q-3.0625 0 -5.8125 -2.09375q-2.75 -2.09375 -4.5625 -5.65625q-1.8125 3.5625 -4.5625 5.65625q-2.75 2.09375 -5.8125 2.09375l-18.9375 0q-2.4375 0 -4.625 -1.25q-2.1875 -1.25 -3.78125 -3.375q-1.59375 -2.125 -2.53125 -4.96875q-0.9375 -2.84375 -0.9375 -6.09375l0 -32.125zm40.75 37.125l0 -44.0625l-25.875 0l0 44.0625l25.875 0zm41.0625 -54.75l14.9375305 0l0 25.125l15.1875 -20.375q2.0 -2.375 4.15625 -3.59375q2.15625 -1.21875 5.28125 -1.21875q2.5 0 4.78125 1.25q2.28125 1.25 4.0 3.40625q1.71875 2.15625 2.75 5.03125q1.03125 2.875 1.03125 6.1875l0 7.0625l13.125 -18.125q2.0 -2.3125 4.5 -3.5625q2.5 -1.25 5.5625 -1.25q2.5 0 4.78125 1.25q2.28125 1.25 4.0 3.40625q1.71875 2.15625 2.75 5.03125q1.03125 2.875 1.03125 6.1875l0 38.9375l11.125 0q-0.25 2.1875 -1.21875 4.15625q-0.96875 1.96875 -2.4375 3.40625q-1.46875 1.4375 -3.34375 2.28125q-1.875 0.84375 -3.9375 0.84375l-3.375 0q-2.4375 0 -4.59375 -1.25q-2.15625 -1.25 -3.71875 -3.40625q-1.5625 -2.15625 -2.46875 -5.03125q-0.90625 -2.875 -0.90625 -6.1875l0 -37.5625l-20.875 25.3125l0 28.125l-14.9375 0l0 -53.4375l-22.25 27.5l0 25.9375l-14.9375305 0l0 -65.4375zm118.37503 -15.125q-2.1875 0 -4.09375 -0.8125q-1.90625 -0.8125 -3.34375 -2.25q-1.4375 -1.4375 -2.25 -3.34375q-0.8125 -1.90625 -0.8125 -4.09375q0 -2.1875 0.8125 -4.09375q0.8125 -1.90625 2.25 -3.34375q1.4375 -1.4375 3.34375 -2.28125q1.90625 -0.84375 4.09375 -0.84375q2.1875 0 4.09375 0.84375q1.90625 0.84375 3.34375 2.28125q1.4375 1.4375 2.28125 3.34375q0.84375 1.90625 0.84375 4.09375q0 2.1875 -0.84375 4.09375q-0.84375 1.90625 -2.28125 3.34375q-1.4375 1.4375 -3.375 2.25q-1.9375 0.8125 -4.0625 0.8125zm-7.3125 15.125l14.9375 0l0 54.75l13.375 0q-0.1875 2.1875 -1.15625 4.15625q-0.96875 1.96875 -2.4375 3.40625q-1.46875 1.4375 -3.34375 2.28125q-1.875 0.84375 -3.9375 0.84375l-5.5 0q-2.4375 0 -4.625 -1.25q-2.1875 -1.25 -3.8125 -3.40625q-1.625 -2.15625 -2.5625 -5.03125q-0.9375 -2.875 -0.9375 -6.1875l0 -49.5625zm40.875 9.625l-5.0 0l0 -9.625l5.0 0l0 -17.375l14.9375 -7.4375l0 24.8125l16.8125 0l0 9.625l-16.8125 0l0 45.125l22.375 0q-0.25 2.1875 -1.21875 4.15625q-0.96875 1.96875 -2.46875 3.40625q-1.5 1.4375 -3.375 2.28125q-1.875 0.84375 -3.9375 0.84375l-14.4375 0q-2.4375 0 -4.625 -1.25q-2.1875 -1.25 -3.78125 -3.40625q-1.59375 -2.15625 -2.53125 -5.03125q-0.9375 -2.875 -0.9375 -6.1875l0 -39.9375zm44.0625 44.1875l35.625 -43.125l-33.75 0l0 -10.6875l49.6875 0l0 11.5l-35.4375 43.25l40.3125 0q-0.25 2.1875 -1.21875 4.15625q-0.96875 1.96875 -2.4375 3.40625q-1.46875 1.4375 -3.34375 2.28125q-1.875 0.84375 -3.9375 0.84375l-45.5 0l0 -11.625z" fill-rule="nonzero"/></g></svg>